# xmcd CD database file
#
# Track frame offsets:
#	150
#	16682
#	44946
#	74871
#	94435
#	119209
#	141959
#	176999
#	201150
#	218279
#	264265
#
# Disc length: 3795 seconds
#
# Revision: 1
# Processed by: cddbd v1.5.1PL2 Copyright (c) Steve Scherf et al.
# Submitted via: CDex 1.50
#
DISCID=b30ed10b
DTITLE=McCoy Tyner - The Impulse Story
DYEAR=2006
DGENRE=Jazz
TTITLE0=Greensleeves
TTITLE1=Speak Low
TTITLE2=Effendi
TTITLE3=Reaching Fourth
TTITLE4=Groove Waltz
TTITLE5=Star Eyes
TTITLE6=Newport Romp
TTITLE7=Blues Back
TTITLE8=Oriental Flower
TTITLE9=Three Flowers
TTITLE10=Searchin'
EXTD=YEAR: 2006
EXTT0=
EXTT1=
EXTT2=
EXTT3=
EXTT4=
EXTT5=
EXTT6=
EXTT7=
EXTT8=
EXTT9=
EXTT10=
PLAYORDER=
